<svg width="111" height="111" viewBox="0 0 111 111" fill="none" xmlns="http://www.w3.org/2000/svg">
<path d="M34.7591 47.6444V53.7006C34.7591 53.7535 34.7381 53.8042 34.7007 53.8416C34.6633 53.8789 34.6126 53.8999 34.5598 53.8999H28.1862C28.1637 53.8998 28.1418 53.8929 28.1233 53.8801C28.1048 53.8673 28.0906 53.8492 28.0825 53.8282C26.071 48.7409 18.7126 50.2878 18.8043 55.6941C18.8176 56.5021 19.0462 57.2603 19.4901 57.9686C21.6173 61.3575 26.5734 60.9269 28.0467 57.2111C28.0608 57.1746 28.0854 57.1433 28.1175 57.1212C28.1495 57.0992 28.1874 57.0874 28.2261 57.0875L34.6594 57.0895C34.6859 57.0895 34.7112 57.1 34.7299 57.1187C34.7486 57.1374 34.7591 57.1627 34.7591 57.1892V63.2194C34.7591 63.3855 34.676 63.4686 34.5099 63.4686H18.6149C18.5919 63.4686 18.5695 63.4617 18.5507 63.4489C18.5318 63.4361 18.5173 63.4179 18.5093 63.3968C17.2433 60.2013 13.0787 59.1627 10.6445 61.6824C8.63297 63.7676 8.8064 67.0349 11.109 68.835C13.4714 70.6809 16.8705 69.9174 18.2361 67.2382C18.3225 67.0668 18.4169 66.9 18.5192 66.7378C18.5525 66.6847 18.6003 66.6581 18.6628 66.6581H34.7053C34.719 66.6581 34.7322 66.6636 34.7419 66.6733C34.7517 66.683 34.7571 66.6962 34.7571 66.7099C34.7584 67.8901 34.7591 69.0715 34.7591 70.2543C34.7591 71.4943 34.8262 72.3461 34.9605 72.8099C35.5426 74.8194 37.3787 76.1769 39.4939 76.1988C41.0861 76.2161 42.6677 76.2274 44.2387 76.2327C44.2998 76.2327 44.3304 76.2633 44.3304 76.3244V80.2515C44.3304 80.314 44.3085 80.3672 44.2646 80.411C42.3295 82.3447 40.3957 84.2777 38.4632 86.21C38.127 86.5462 37.9595 86.9562 37.9608 87.44C37.9622 89.0826 37.9555 90.7252 37.9409 92.3678C37.9396 92.4343 37.9083 92.4794 37.8472 92.5034C36.2616 93.1399 35.2834 94.2091 34.9126 95.7109C33.6387 100.864 40.3272 104.059 43.4552 99.7038C45.3013 97.1342 44.1171 93.6496 41.2463 92.4834C41.1745 92.4542 41.1386 92.4004 41.1386 92.322V88.1437C41.1386 88.0839 41.1599 88.0327 41.2024 87.9902C43.103 86.0871 45.0029 84.1866 46.9021 82.2889C47.3667 81.8244 47.5122 81.4935 47.5142 80.7978C47.5182 79.3093 47.5195 77.8368 47.5182 76.3802C47.5182 76.339 47.5345 76.2994 47.5637 76.2703C47.5929 76.2411 47.6324 76.2247 47.6737 76.2247H53.8439C53.8581 76.2247 53.8718 76.2306 53.8819 76.2411C53.892 76.2516 53.8977 76.2658 53.8977 76.2806V82.7653C53.8977 82.8344 53.8658 82.8822 53.802 82.9088C50.5185 84.2684 49.5556 88.5264 52.2968 90.9385C54.8446 93.1811 58.7162 92.2363 59.9582 89.0926C60.9271 86.6426 59.6492 83.8677 57.1971 82.9228C57.1649 82.9106 57.1372 82.8889 57.1176 82.8604C57.0981 82.8319 57.0875 82.7981 57.0874 82.7633L57.0855 76.4022C57.0855 76.3556 57.1039 76.311 57.1368 76.2781C57.1697 76.2452 57.2144 76.2267 57.2609 76.2267L63.3713 76.2247C63.3961 76.2247 63.42 76.2348 63.4375 76.2528C63.4551 76.2707 63.465 76.2951 63.465 76.3204C63.4676 77.874 63.4683 79.4375 63.467 81.011C63.4656 81.439 63.6318 81.8204 63.9654 82.1553C65.9018 84.1036 67.8409 86.0485 69.7827 87.9902C69.8252 88.034 69.8465 88.0859 69.8465 88.1457V92.3718C69.8465 92.4329 69.8186 92.4748 69.7628 92.4974C68.1519 93.1393 67.1638 94.2271 66.7983 95.7607C65.7516 100.14 70.5602 103.394 74.2643 100.832C74.9129 100.383 75.412 99.7848 75.7615 99.0379C76.9736 96.4325 75.7735 93.5858 73.1339 92.4854C73.1051 92.4736 73.0804 92.4534 73.063 92.4275C73.0456 92.4016 73.0363 92.3711 73.0363 92.3399C73.0349 90.6867 73.0349 89.0374 73.0363 87.3921C73.0376 86.9589 72.8721 86.5761 72.5399 86.2439C70.6021 84.2996 68.663 82.3566 66.7225 80.415C66.6787 80.3698 66.6567 80.316 66.6567 80.2535L66.6508 76.3842C66.6508 76.3419 66.6678 76.3014 66.6981 76.2715C66.7283 76.2415 66.7694 76.2247 66.8122 76.2247C68.4789 76.2314 70.1548 76.2287 71.8401 76.2168C73.6264 76.2068 75.3807 74.6459 75.9389 73.0512C76.1303 72.5036 76.226 71.6205 76.226 70.4018C76.2247 69.1951 76.2247 67.9957 76.226 66.8036C76.2265 66.7649 76.2423 66.7278 76.2699 66.7006C76.2975 66.6734 76.3348 66.6581 76.3736 66.6581H92.3303C92.4061 66.6581 92.4593 66.6927 92.4898 66.7618C93.4448 68.9187 95.3168 70.0889 97.6572 69.8098C98.4175 69.7181 99.1212 69.4304 99.7685 68.9466C102.31 67.0448 102.402 63.4028 99.9997 61.3754C97.4539 59.2265 93.7159 60.3588 92.4799 63.3669C92.4519 63.4347 92.4014 63.4686 92.3283 63.4686H76.4254C76.3725 63.4686 76.3218 63.4476 76.2844 63.4102C76.247 63.3728 76.226 63.3221 76.226 63.2692V57.239C76.226 57.1993 76.2418 57.1613 76.2698 57.1333C76.2979 57.1052 76.3359 57.0895 76.3755 57.0895H82.793C82.8461 57.0895 82.8827 57.1141 82.9026 57.1632C84.0768 60.0817 87.6274 61.2817 90.2091 59.3541C92.8128 57.4084 92.8327 53.6089 90.2271 51.6473C87.6394 49.6997 84.0709 50.8978 82.9006 53.8322C82.8923 53.8523 82.8782 53.8695 82.8601 53.8815C82.842 53.8936 82.8207 53.9 82.7989 53.8999H76.3755C76.3359 53.8999 76.2979 53.8842 76.2698 53.8562C76.2418 53.8281 76.226 53.7901 76.226 53.7504V47.6704C76.226 47.6307 76.2418 47.5927 76.2698 47.5646C76.2979 47.5366 76.3359 47.5209 76.3755 47.5209H92.3363C92.4028 47.5209 92.4486 47.5514 92.4739 47.6126C94.7845 53.0667 102.765 50.6825 101.642 44.9294C100.733 40.2746 94.1724 39.8141 92.4759 44.2615C92.4676 44.2821 92.4535 44.2997 92.4354 44.3121C92.4173 44.3245 92.396 44.3312 92.3742 44.3313H76.3835C76.3442 44.3313 76.3065 44.3158 76.2785 44.2882C76.2505 44.2606 76.2345 44.2231 76.234 44.1838C76.226 42.6435 76.2101 41.0813 76.1862 39.4972C76.1636 37.9835 75.5874 36.7621 74.4577 35.8332C73.4031 34.966 72.3644 34.7746 70.8971 34.7667C69.5162 34.76 68.1373 34.7594 66.7604 34.7647C66.7329 34.7647 66.7065 34.754 66.6871 34.7349C66.6677 34.7158 66.6567 34.69 66.6567 34.663V30.7319C66.6567 30.6708 66.6787 30.6183 66.7225 30.5744C68.6231 28.674 70.5223 26.7749 72.4202 24.8771C72.8309 24.4664 73.0349 24.0073 73.0323 23.4996C73.0243 21.8836 73.0283 20.2675 73.0442 18.6515C73.0456 18.5851 73.0768 18.5385 73.1379 18.512C76.3676 17.1405 77.3783 13.0279 74.7129 10.5461C71.882 7.91072 67.3146 9.52941 66.7146 13.2831C66.3557 15.5357 67.6456 17.6907 69.7687 18.512C69.8206 18.5319 69.8465 18.5704 69.8465 18.6276V22.8438C69.8465 22.9036 69.8252 22.9547 69.7827 22.9973C67.8489 24.9336 65.9164 26.8686 63.9853 28.8022C63.5966 29.191 63.473 29.5637 63.471 30.1458C63.4656 31.6303 63.4643 33.1035 63.467 34.5653C63.4672 34.5911 63.4623 34.6168 63.4525 34.6407C63.4427 34.6646 63.4282 34.6864 63.4099 34.7048C63.3915 34.7231 63.3697 34.7377 63.3456 34.7476C63.3215 34.7576 63.2957 34.7627 63.2696 34.7627H57.237C57.1973 34.7627 57.1593 34.7469 57.1312 34.7189C57.1032 34.6909 57.0874 34.6528 57.0874 34.6132V28.1922C57.0874 28.1364 57.1134 28.0979 57.1652 28.0766C60.1576 26.8785 61.2441 23.366 59.3143 20.7247C57.9965 18.9226 55.3809 18.2688 53.3554 19.3094C49.5776 21.251 49.9603 26.5616 53.8239 28.0826C53.8731 28.1012 53.8977 28.1371 53.8977 28.1902V34.5633C53.8977 34.6162 53.8767 34.6669 53.8393 34.7043C53.8019 34.7417 53.7512 34.7627 53.6983 34.7627H47.6697C47.63 34.7627 47.592 34.7469 47.564 34.7189C47.5359 34.6909 47.5202 34.6528 47.5202 34.6132C47.5175 33.1048 47.5155 31.5765 47.5142 30.0282C47.5142 29.4501 47.3108 29.1132 46.8822 28.6846C44.9909 26.7882 43.0983 24.8937 41.2044 23.0012C41.1606 22.9587 41.1386 22.9069 41.1386 22.8458V18.6694C41.1386 18.6043 41.1672 18.5565 41.2244 18.5259C41.453 18.4076 41.6723 18.2847 41.8823 18.1571C43.7589 17.0209 44.559 15.3962 44.2825 13.2831C43.9097 10.4265 40.8795 8.63634 38.1064 9.47758C33.874 10.7614 33.555 16.8315 37.8492 18.492C37.913 18.516 37.9449 18.5618 37.9449 18.6296C37.9529 20.1579 37.9549 21.6809 37.9509 23.1986C37.9489 24.1295 38.0785 24.3927 38.7563 25.0705C40.5917 26.9071 42.4272 28.7424 44.2626 30.5764C44.3065 30.6203 44.3284 30.6728 44.3284 30.7339V34.6092C44.3284 34.6291 44.3245 34.6488 44.3169 34.6672C44.3093 34.6855 44.2981 34.7022 44.284 34.7163C44.27 34.7304 44.2533 34.7415 44.2349 34.7492C44.2165 34.7568 44.1968 34.7607 44.1769 34.7607C43.0419 34.762 41.9049 34.7627 40.7658 34.7627C39.4899 34.7627 38.6161 34.8318 38.1443 34.97C36.6152 35.4225 35.3572 36.7163 34.9326 38.2692C34.8209 38.6785 34.7638 39.337 34.7611 40.2447C34.7571 41.5484 34.7571 42.8449 34.7611 44.134C34.7611 44.1863 34.7403 44.2365 34.7033 44.2735C34.6663 44.3105 34.6161 44.3313 34.5637 44.3313H18.6568C18.585 44.3313 18.5352 44.2981 18.5073 44.2316C16.9403 40.47 12.0041 40.0334 9.87698 43.5299C9.12339 44.7719 9.06358 46.4045 9.6198 47.7541C11.2725 51.761 16.9662 51.6453 18.5033 47.5986C18.5232 47.5468 18.5604 47.5209 18.6149 47.5209H34.6335C34.6668 47.5209 34.6988 47.5339 34.7223 47.5571C34.7459 47.5802 34.7591 47.6117 34.7591 47.6444ZM69.8525 14.0287C69.8525 13.6068 70.0201 13.2021 70.3184 12.9038C70.6168 12.6055 71.0214 12.4379 71.4434 12.4379C71.6523 12.4379 71.8592 12.479 72.0522 12.559C72.2452 12.6389 72.4206 12.7561 72.5683 12.9038C72.716 13.0515 72.8332 13.2269 72.9132 13.4199C72.9931 13.6129 73.0343 13.8198 73.0343 14.0287C73.0343 14.2376 72.9931 14.4444 72.9132 14.6374C72.8332 14.8304 72.716 15.0058 72.5683 15.1535C72.4206 15.3012 72.2452 15.4184 72.0522 15.4984C71.8592 15.5783 71.6523 15.6194 71.4434 15.6194C71.0214 15.6194 70.6168 15.4518 70.3184 15.1535C70.0201 14.8552 69.8525 14.4506 69.8525 14.0287ZM37.9529 14.0307C37.9529 13.8218 37.994 13.6149 38.074 13.4219C38.1539 13.2289 38.2711 13.0535 38.4188 12.9058C38.5666 12.7581 38.7419 12.6409 38.935 12.561C39.128 12.481 39.3348 12.4399 39.5438 12.4399C39.9657 12.4399 40.3703 12.6075 40.6687 12.9058C40.967 13.2041 41.1347 13.6088 41.1347 14.0307C41.1347 14.4526 40.967 14.8572 40.6687 15.1555C40.3703 15.4538 39.9657 15.6214 39.5438 15.6214C39.3348 15.6214 39.128 15.5803 38.935 15.5003C38.7419 15.4204 38.5666 15.3032 38.4188 15.1555C38.2711 15.0078 38.1539 14.8324 38.074 14.6394C37.994 14.4464 37.9529 14.2396 37.9529 14.0307ZM53.9017 23.5993C53.9017 23.1774 54.0693 22.7728 54.3676 22.4744C54.666 22.1761 55.0706 22.0085 55.4926 22.0085C55.9145 22.0085 56.3191 22.1761 56.6175 22.4744C56.9159 22.7728 57.0835 23.1774 57.0835 23.5993C57.0835 24.0212 56.9159 24.4258 56.6175 24.7241C56.3191 25.0225 55.9145 25.1901 55.4926 25.1901C55.0706 25.1901 54.666 25.0225 54.3676 24.7241C54.0693 24.4258 53.9017 24.0212 53.9017 23.5993ZM37.9489 39.5629C37.9489 39.1358 38.1186 38.7261 38.4207 38.424C38.7228 38.1219 39.1325 37.9522 39.5597 37.9522H71.4254C71.8527 37.9522 72.2624 38.1219 72.5645 38.424C72.8666 38.7261 73.0363 39.1358 73.0363 39.5629V71.4265C73.0363 71.8537 72.8666 72.2634 72.5645 72.5654C72.2624 72.8675 71.8527 73.0372 71.4254 73.0372H39.5597C39.1325 73.0372 38.7228 72.8675 38.4207 72.5654C38.1186 72.2634 37.9489 71.8537 37.9489 71.4265V39.5629ZM95.3706 45.9241C95.3706 45.5022 95.5382 45.0976 95.8365 44.7992C96.1349 44.5009 96.5395 44.3333 96.9615 44.3333C97.3834 44.3333 97.7881 44.5009 98.0864 44.7992C98.3848 45.0976 98.5524 45.5022 98.5524 45.9241C98.5524 46.346 98.3848 46.7506 98.0864 47.0489C97.7881 47.3473 97.3834 47.5149 96.9615 47.5149C96.5395 47.5149 96.1349 47.3473 95.8365 47.0489C95.5382 46.7506 95.3706 46.346 95.3706 45.9241ZM12.4348 45.9261C12.4348 45.7172 12.4759 45.5103 12.5559 45.3173C12.6358 45.1243 12.753 44.9489 12.9007 44.8012C13.0485 44.6535 13.2238 44.5363 13.4169 44.4564C13.6099 44.3764 13.8167 44.3353 14.0257 44.3353C14.4476 44.3353 14.8522 44.5029 15.1506 44.8012C15.4489 45.0996 15.6166 45.5042 15.6166 45.9261C15.6166 46.348 15.4489 46.7526 15.1506 47.0509C14.8522 47.3493 14.4476 47.5169 14.0257 47.5169C13.8167 47.5169 13.6099 47.4757 13.4169 47.3958C13.2238 47.3158 13.0485 47.1987 12.9007 47.0509C12.753 46.9032 12.6358 46.7279 12.5559 46.5349C12.4759 46.3418 12.4348 46.135 12.4348 45.9261ZM85.8013 55.4927C85.8013 55.2838 85.8424 55.077 85.9224 54.8839C86.0023 54.6909 86.1195 54.5156 86.2673 54.3679C86.415 54.2201 86.5904 54.103 86.7834 54.023C86.9764 53.9431 87.1833 53.9019 87.3922 53.9019C87.8141 53.9019 88.2188 54.0695 88.5171 54.3679C88.8155 54.6662 88.9831 55.0708 88.9831 55.4927C88.9831 55.9146 88.8155 56.3192 88.5171 56.6176C88.2188 56.9159 87.8141 57.0835 87.3922 57.0835C87.1833 57.0835 86.9764 57.0424 86.7834 56.9624C86.5904 56.8825 86.415 56.7653 86.2673 56.6176C86.1195 56.4699 86.0023 56.2945 85.9224 56.1015C85.8424 55.9085 85.8013 55.7016 85.8013 55.4927ZM22.0041 55.4947C22.0041 55.0728 22.1717 54.6682 22.47 54.3699C22.7684 54.0715 23.173 53.9039 23.5949 53.9039C24.0169 53.9039 24.4215 54.0715 24.7199 54.3699C25.0182 54.6682 25.1858 55.0728 25.1858 55.4947C25.1858 55.9166 25.0182 56.3212 24.7199 56.6196C24.4215 56.9179 24.0169 57.0855 23.5949 57.0855C23.173 57.0855 22.7684 56.9179 22.47 56.6196C22.1717 56.3212 22.0041 55.9166 22.0041 55.4947ZM95.3706 65.0613C95.3706 64.6394 95.5382 64.2348 95.8365 63.9365C96.1349 63.6382 96.5395 63.4706 96.9615 63.4706C97.3834 63.4706 97.7881 63.6382 98.0864 63.9365C98.3848 64.2348 98.5524 64.6394 98.5524 65.0613C98.5524 65.4832 98.3848 65.8879 98.0864 66.1862C97.7881 66.4845 97.3834 66.6521 96.9615 66.6521C96.5395 66.6521 96.1349 66.4845 95.8365 66.1862C95.5382 65.8879 95.3706 65.4832 95.3706 65.0613ZM12.4368 65.0613C12.4368 64.6394 12.6044 64.2348 12.9027 63.9365C13.2011 63.6382 13.6057 63.4706 14.0277 63.4706C14.4496 63.4706 14.8542 63.6382 15.1526 63.9365C15.4509 64.2348 15.6185 64.6394 15.6185 65.0613C15.6185 65.4832 15.4509 65.8879 15.1526 66.1862C14.8542 66.4845 14.4496 66.6521 14.0277 66.6521C13.6057 66.6521 13.2011 66.4845 12.9027 66.1862C12.6044 65.8879 12.4368 65.4832 12.4368 65.0613ZM53.9037 87.3881C53.9037 86.9662 54.0713 86.5616 54.3696 86.2633C54.668 85.965 55.0726 85.7974 55.4946 85.7974C55.9165 85.7974 56.3211 85.965 56.6195 86.2633C56.9178 86.5616 57.0855 86.9662 57.0855 87.3881C57.0855 87.81 56.9178 88.2147 56.6195 88.513C56.3211 88.8113 55.9165 88.9789 55.4946 88.9789C55.0726 88.9789 54.668 88.8113 54.3696 88.513C54.0713 88.2147 53.9037 87.81 53.9037 87.3881ZM69.8525 96.9568C69.8525 96.5349 70.0201 96.1302 70.3184 95.8319C70.6168 95.5336 71.0214 95.366 71.4434 95.366C71.6523 95.366 71.8592 95.4071 72.0522 95.4871C72.2452 95.567 72.4206 95.6842 72.5683 95.8319C72.716 95.9796 72.8332 96.155 72.9132 96.348C72.9931 96.541 73.0343 96.7479 73.0343 96.9568C73.0343 97.1657 72.9931 97.3725 72.9132 97.5655C72.8332 97.7585 72.716 97.9339 72.5683 98.0816C72.4206 98.2293 72.2452 98.3465 72.0522 98.4265C71.8592 98.5064 71.6523 98.5476 71.4434 98.5476C71.0214 98.5476 70.6168 98.38 70.3184 98.0816C70.0201 97.7833 69.8525 97.3787 69.8525 96.9568ZM37.9529 96.9588C37.9529 96.7499 37.994 96.543 38.074 96.35C38.1539 96.157 38.2711 95.9816 38.4188 95.8339C38.5666 95.6862 38.7419 95.569 38.935 95.4891C39.128 95.4091 39.3348 95.368 39.5438 95.368C39.9657 95.368 40.3703 95.5356 40.6687 95.8339C40.967 96.1322 41.1347 96.5369 41.1347 96.9588C41.1347 97.1677 41.0935 97.3745 41.0136 97.5675C40.9336 97.7605 40.8164 97.9359 40.6687 98.0836C40.521 98.2313 40.3456 98.3485 40.1526 98.4285C39.9595 98.5084 39.7527 98.5496 39.5438 98.5496C39.3348 98.5496 39.128 98.5084 38.935 98.4285C38.7419 98.3485 38.5666 98.2313 38.4188 98.0836C38.2711 97.9359 38.1539 97.7605 38.074 97.5675C37.994 97.3745 37.9529 97.1677 37.9529 96.9588Z" fill="#475DC9"/>
</svg>
